<?xml version="1.0" encoding="UTF-8"?>
<svg version="1.1" xmlns="http://www.w3.org/2000/svg" width="354" height="449">
<path d="M0 0 C2.08984375 1.51171875 2.08984375 1.51171875 4.0625 3.3125 C4.75351807 3.92891357 5.44453613 4.54532715 6.15649414 5.18041992 C9.09821063 10.01445103 8.58731312 14.67516631 8.53125 20.2265625 C8.53829956 21.39198578 8.54534912 22.55740906 8.5526123 23.75814819 C8.58205237 28.73422687 8.56553819 33.70991323 8.55322266 38.68603516 C8.55082717 42.32477791 8.57184786 45.96289741 8.59375 49.6015625 C8.58243042 50.71028717 8.57111084 51.81901184 8.55944824 52.96133423 C8.62675413 63.48206122 11.02781065 71.87528779 18.28125 79.65625 C20.01441718 81.37491043 20.01441718 81.37491043 22.12866211 82.59155273 C24.0625 84.3125 24.0625 84.3125 24.65258789 86.69750977 C24.69633545 87.62362061 24.74008301 88.54973145 24.78515625 89.50390625 C24.88086914 91.04594727 24.88086914 91.04594727 24.97851562 92.61914062 C25.02685547 93.69357422 25.07519531 94.76800781 25.125 95.875 C25.62519871 105.90985074 26.2106164 116.37874005 33.0625 124.3125 C38.04924985 128.21561004 43.48780305 131.17719137 49.21484375 133.84375 C53.27096892 137.06806937 53.36836651 142.78294615 54.05004883 147.6315918 C55.6440458 158.94286257 58.07273422 170.45512117 67.0625 178.3125 C73.50395971 182.55800754 81.36254016 183.2181724 88.89453125 183.8671875 C89.86753174 183.95210449 90.84053223 184.03702148 91.84301758 184.12451172 C92.57544678 184.18654785 93.30787598 184.24858398 94.0625 184.3125 C94.08588141 196.41484413 94.10354447 208.5171827 94.11431217 220.61954498 C94.11948543 226.24181426 94.12647936 231.86406786 94.13793945 237.48632812 C94.14896931 242.93287811 94.15481841 248.3794132 94.15737724 253.82597351 C94.15919592 255.88270807 94.16274498 257.939442 94.16823006 259.99617004 C94.20604808 274.7930741 93.79027147 289.53339651 93.0625 304.3125 C90.42272683 301.06076248 88.12720385 297.85699784 86 294.25 C73.91743975 275.03717351 55.65490209 263.73759811 36.0625 253.3125 C17.71462004 243.54608586 1.2485976 232.58149757 -13.9375 218.3125 C-14.54980469 217.76464844 -15.16210938 217.21679688 -15.79296875 216.65234375 C-33.62621526 200.04334757 -41.48123645 176.05217047 -42.9375 152.3125 C-43.26241219 142.25193555 -43.17847441 132.18128044 -43.14028788 122.11680102 C-43.12763673 118.21044801 -43.12659885 114.30409067 -43.12423706 110.39772034 C-43.11806397 103.02819468 -43.10171073 95.6587296 -43.08153808 88.28923041 C-43.05904783 79.88755357 -43.04815292 71.48587357 -43.03814721 63.08417404 C-43.01733992 45.82691454 -42.98224669 28.56971371 -42.9375 11.3125 C-42.12780762 10.91708008 -41.31811523 10.52166016 -40.48388672 10.11425781 C-39.41412598 9.58670898 -38.34436523 9.05916016 -37.2421875 8.515625 C-36.18499512 7.99645508 -35.12780273 7.47728516 -34.03857422 6.94238281 C-31.23142724 5.46698419 -28.66204638 3.87257608 -26.0625 2.0625 C-18.10762086 -3.36386399 -8.52333477 -5.47124954 0 0 Z " fill="#102B72" transform="translate(102.9375,102.6875)"/>
<path d="M0 0 C9.57 0 19.14 0 29 0 C30.32 3.3 31.64 6.6 33 10 C33.57234375 11.40378906 34.1446875 12.80757812 34.734375 14.25390625 C36.70823467 20.35334658 36.35918202 26.59377646 36.25 32.9375 C36.23356445 34.85018677 36.23356445 34.85018677 36.21679688 36.80151367 C36.10338178 46.55336235 35.72903159 56.27523938 35 66 C35.84820312 66.04898438 36.69640625 66.09796875 37.5703125 66.1484375 C38.74335938 66.22320312 39.91640625 66.29796875 41.125 66.375 C42.26195312 66.44460937 43.39890625 66.51421875 44.5703125 66.5859375 C50.7391283 67.16256402 56.86656289 68.1237947 63 69 C66.63 78.9 70.26 88.8 74 99 C76.03216978 95.95174533 77.12567316 93.23373868 78.3828125 89.80078125 C78.82753906 88.59228516 79.27226562 87.38378906 79.73046875 86.13867188 C80.19539754 84.86331225 80.6602402 83.58792122 81.125 82.3125 C81.5972961 81.02525843 82.06994834 79.73814746 82.54296875 78.45117188 C83.69882624 75.30204993 84.8510159 72.15163489 86 69 C89.54073904 68.4932817 93.08272111 67.99582971 96.625 67.5 C97.62402344 67.35691406 98.62304688 67.21382813 99.65234375 67.06640625 C104.46944557 66.39647818 109.12196787 65.80021711 114 66 C113.89171875 64.17855469 113.89171875 64.17855469 113.78125 62.3203125 C113.45723529 56.54919341 113.22379815 50.77574746 113 45 C112.92869873 43.38810791 112.92869873 43.38810791 112.85595703 41.74365234 C112.26057876 27.02930364 112.87787379 14.55007989 119 1 C120 0 120 0 122.77563477 -0.11352539 C123.98533936 -0.10828857 125.19504395 -0.10305176 126.44140625 -0.09765625 C127.74658203 -0.09443359 129.05175781 -0.09121094 130.39648438 -0.08789062 C131.7851569 -0.07953401 133.17382877 -0.07106905 134.5625 -0.0625 C135.95507656 -0.05748666 137.34765481 -0.05292347 138.74023438 -0.04882812 C142.1601987 -0.03699434 145.58007844 -0.0205088 149 0 C146.31060937 3.10602277 142.92961176 4.91642328 139.3984375 6.90625 C138.09101172 7.65731867 136.78372414 8.40862795 135.4765625 9.16015625 C133.41990032 10.33532139 131.36166928 11.50755344 129.30078125 12.67529297 C127.30790791 13.80696033 125.3216571 14.94958963 123.3359375 16.09375 C122.71617035 16.44070923 122.0964032 16.78766846 121.45785522 17.1451416 C117.76901073 19.21903441 117.76901073 19.21903441 116 23 C116.90050826 25.53265368 116.90050826 25.53265368 118.36499023 28.29760742 C118.90562607 29.37850143 119.4462619 30.45939545 120.00328064 31.57304382 C120.59903397 32.73874405 121.19478729 33.90444427 121.80859375 35.10546875 C122.41624 36.31143625 123.0230048 37.51784826 123.62892151 38.72468567 C125.22632828 41.90040536 126.83565547 45.06993657 128.44750977 48.23834229 C130.09006418 51.47231117 131.7213146 54.71196892 133.35351562 57.95117188 C136.55794765 64.30640604 139.77500297 70.65517355 143 77 C142.01 77.495 142.01 77.495 141 78 C138.54150391 77.16381836 138.54150391 77.16381836 135.4765625 75.83984375 C134.373125 75.37642578 133.2696875 74.91300781 132.1328125 74.43554688 C129.79945934 73.43906476 127.46870233 72.43648089 125.140625 71.42773438 C123.48160156 70.73454102 123.48160156 70.73454102 121.7890625 70.02734375 C120.77537598 69.59156006 119.76168945 69.15577637 118.71728516 68.70678711 C116.05671744 67.74686601 116.05671744 67.74686601 113.74072266 68.78076172 C111.84797051 70.10648461 110.33539507 71.50590377 108.75 73.1875 C106.38707006 75.68495318 103.91063697 77.97468176 101.31640625 80.2265625 C96.8425449 84.11186667 92.50462267 88.1294809 88.1875 92.1875 C87.06311523 93.23454102 87.06311523 93.23454102 85.91601562 94.30273438 C85.19478516 94.98013672 84.47355469 95.65753906 83.73046875 96.35546875 C83.08489014 96.96028076 82.43931152 97.56509277 81.77416992 98.18823242 C79.98461007 100.01571606 78.4859565 101.92126456 77 104 C81.70304703 108.80102717 86.44499981 113.46547144 91.55078125 117.8359375 C95.72719251 121.52609992 99.76139731 125.37150174 103.80908203 129.2019043 C104.43540527 129.79140869 105.06172852 130.38091309 105.70703125 130.98828125 C106.2688208 131.51977783 106.83061035 132.05127441 107.40942383 132.59887695 C109.15697566 134.2012489 109.15697566 134.2012489 112 136 C112 136.66 112 137.32 112 138 C106.62828389 137.02797518 101.97719318 135.6426766 96.97265625 133.44921875 C77.69874476 125.48556981 65.71379378 127.66350487 46.7109375 135.27734375 C45.47444125 135.80068719 44.23794992 136.32404227 43.00146484 136.84741211 C40 138 40 138 37 138 C37 136 37 136 38.22265625 134.765625 C38.82980469 134.26546875 39.43695313 133.7653125 40.0625 133.25 C44.33334903 129.62624931 48.42082096 125.83575879 52.5 122 C57.04133278 117.73306968 61.5894083 113.50856001 66.38671875 109.52734375 C68.49747534 107.52902456 70.22329042 105.2954004 72 103 C66.08757149 96.99888506 60.21152355 91.03991593 53.79296875 85.57421875 C51.94570371 83.9523281 50.22243286 82.25339795 48.5 80.5 C41.57814186 73.05364672 41.57814186 73.05364672 33 68 C30.17330025 68.6622519 30.17330025 68.6622519 27.2109375 70.02734375 C25.55191406 70.72053711 25.55191406 70.72053711 23.859375 71.42773438 C22.70953125 71.92595703 21.5596875 72.42417969 20.375 72.9375 C18.09398768 73.91162942 15.81025943 74.87943197 13.5234375 75.83984375 C12.51200684 76.27675537 11.50057617 76.71366699 10.45849609 77.16381836 C9.64719238 77.4397583 8.83588867 77.71569824 8 78 C7.34 77.67 6.68 77.34 6 77 C6.34047867 76.33014572 6.68095734 75.66029144 7.03175354 74.97013855 C10.23544592 68.66285352 13.42954396 62.35082598 16.61290073 56.03325939 C18.2499212 52.78533467 19.89061765 49.53937856 21.53979492 46.29760742 C23.13059562 43.17025088 24.71163332 40.03813864 26.28596306 36.9024601 C27.18279101 35.12256702 28.08971127 33.34777086 28.99671936 31.57304382 C29.53735519 30.49214981 30.07799103 29.4112558 30.63500977 28.29760742 C31.11688248 27.34496506 31.59875519 26.39232269 32.0952301 25.41081238 C33.32090106 22.91370259 33.32090106 22.91370259 32 20 C29.90928539 18.57949657 27.86257777 17.32452701 25.6640625 16.09375 C25.02890717 15.7277771 24.39375183 15.3618042 23.73934937 14.98474121 C21.70603307 13.81454019 19.66611526 12.65653589 17.625 11.5 C15.59192265 10.34202149 13.56045778 9.18144037 11.53207397 8.01525879 C10.2695661 7.28999383 9.00421817 6.56964477 7.73574829 5.8548584 C4.68474005 4.10801789 2.51846703 2.51846703 0 0 Z " fill="#102B71" transform="translate(124,110)"/>
<path d="M0 0 C0.23315639 3.39466737 0.37464625 6.78727962 0.5 10.1875 C0.60054687 11.62706055 0.60054687 11.62706055 0.703125 13.09570312 C0.78161022 15.93098165 0.7412261 18.2588726 0 21 C-2.34478266 23.45277974 -4.88610705 24.71957255 -8 26 C-8.83789062 26.36609375 -9.67578125 26.7321875 -10.5390625 27.109375 C-11.22742188 27.32078125 -11.91578125 27.5321875 -12.625 27.75 C-13.66527344 28.08257812 -13.66527344 28.08257812 -14.7265625 28.421875 C-25.98643596 31.28521052 -37.08226687 30.67909867 -48.25 28 C-61.56102818 24.87096598 -75.54759361 23.54031418 -88 30 C-89.32363438 30.36997419 -90.65552733 30.71489977 -92 31 C-94.66044076 28.33955924 -95.012761 26.88515098 -95.4375 23.0625 C-95.3012596 20.12515701 -94.95394164 18.91555967 -93.5 16.25 C-85.4225214 8.98026926 -75.14739789 7.52345214 -64.609375 7.671875 C-57.87532697 8.28406118 -51.4920491 10.18302201 -45 12 C-34.02531508 14.96841536 -25.50159181 14.75335208 -15 10 C-11.48655151 7.87648718 -8.23344079 5.5246612 -5 3 C-1.11845103 0 -1.11845103 0 0 0 Z " fill="#997D4E" transform="translate(294,42)"/>
<path d="M0 0 C9.57 0 19.14 0 29 0 C30.32 3.3 31.64 6.6 33 10 C33.57234375 11.40378906 34.1446875 12.80757812 34.734375 14.25390625 C36.70823467 20.35334658 36.35918202 26.59377646 36.25 32.9375 C36.23356445 34.85018677 36.23356445 34.85018677 36.21679688 36.80151367 C36.10338178 46.55336235 35.72903159 56.27523938 35 66 C35.84820312 66.04898438 36.69640625 66.09796875 37.5703125 66.1484375 C38.74335938 66.22320312 39.91640625 66.29796875 41.125 66.375 C42.26195312 66.44460937 43.39890625 66.51421875 44.5703125 66.5859375 C50.74851244 67.07490405 56.87347567 68.08612231 63 69 C64.57702665 73.17706163 66.14323905 77.35797226 67.69970703 81.54272461 C68.23030478 82.96472011 68.76380319 84.38563687 69.30029297 85.80541992 C70.07250301 87.85055877 70.83407681 89.89939526 71.59375 91.94921875 C72.05458984 93.17987061 72.51542969 94.41052246 72.99023438 95.6784668 C73.90700546 98.69410282 74.22754338 100.88420715 74 104 C70.37874805 100.96997286 66.87118461 97.93217419 63.5625 94.5625 C61.13073895 92.0872175 58.62924154 89.76449126 56 87.5 C53.39352391 85.2544206 50.91065479 82.95448488 48.5 80.5 C41.57814186 73.05364672 41.57814186 73.05364672 33 68 C30.17330025 68.6622519 30.17330025 68.6622519 27.2109375 70.02734375 C25.55191406 70.72053711 25.55191406 70.72053711 23.859375 71.42773438 C22.70953125 71.92595703 21.5596875 72.42417969 20.375 72.9375 C18.09398768 73.91162942 15.81025943 74.87943197 13.5234375 75.83984375 C12.51200684 76.27675537 11.50057617 76.71366699 10.45849609 77.16381836 C9.64719238 77.4397583 8.83588867 77.71569824 8 78 C7.34 77.67 6.68 77.34 6 77 C6.34047867 76.33014572 6.68095734 75.66029144 7.03175354 74.97013855 C10.23544592 68.66285352 13.42954396 62.35082598 16.61290073 56.03325939 C18.2499212 52.78533467 19.89061765 49.53937856 21.53979492 46.29760742 C23.13059562 43.17025088 24.71163332 40.03813864 26.28596306 36.9024601 C27.18279101 35.12256702 28.08971127 33.34777086 28.99671936 31.57304382 C29.53735519 30.49214981 30.07799103 29.4112558 30.63500977 28.29760742 C31.11688248 27.34496506 31.59875519 26.39232269 32.0952301 25.41081238 C33.32090106 22.91370259 33.32090106 22.91370259 32 20 C29.90928539 18.57949657 27.86257777 17.32452701 25.6640625 16.09375 C25.02890717 15.7277771 24.39375183 15.3618042 23.73934937 14.98474121 C21.70603307 13.81454019 19.66611526 12.65653589 17.625 11.5 C15.59192265 10.34202149 13.56045778 9.18144037 11.53207397 8.01525879 C10.2695661 7.28999383 9.00421817 6.56964477 7.73574829 5.8548584 C4.68474005 4.10801789 2.51846703 2.51846703 0 0 Z " fill="#997D4E" transform="translate(124,110)"/>
</svg>
