<svg xmlns="http://www.w3.org/2000/svg" width="256" height="256" viewBox="0 0 100 100"><path fill="#7f7f7f" d="M14.60 76.24L7.96 76.24L7.96 23.76L22.92 23.76Q27.32 23.76 30.96 24.56Q34.60 25.36 37.16 27.16Q39.72 28.96 41.16 31.92Q42.60 34.88 42.60 39.20L42.60 39.20Q42.60 43.36 41.20 46.40Q39.80 49.44 37.24 51.44Q34.68 53.44 31.12 54.44Q27.56 55.44 23.24 55.44L23.24 55.44L14.60 55.44L14.60 76.24ZM14.60 29.12L14.60 50.00L22.44 50.00Q29.32 50.00 32.64 47.40Q35.96 44.80 35.96 39.20L35.96 39.20Q35.96 33.52 32.48 31.32Q29.00 29.12 22.12 29.12L22.12 29.12L14.60 29.12ZM59.88 76.24L53.24 76.24L53.24 23.76L59.88 23.76L59.88 50.08L60.12 50.08L81.96 23.76L89.48 23.76L73.08 43.76L92.04 76.24L84.60 76.24L68.92 48.96L59.88 59.60L59.88 76.24Z"></path></svg>